<svg width="200" height="200" viewBox="0 0 200 200" fill="none" xmlns="http://www.w3.org/2000/svg">
  <rect width="200" height="200" fill="#F5F5F5"/>
  <path d="M100 70C88.954 70 80 78.954 80 90C80 101.046 88.954 110 100 110C111.046 110 120 101.046 120 90C120 78.954 111.046 70 100 70ZM76 130C76 123.373 81.373 118 88 118H112C118.627 118 124 123.373 124 130V134H76V130Z" fill="#CCCCCC"/>
  <path d="M100 50C72.386 50 50 72.386 50 100C50 127.614 72.386 150 100 150C127.614 150 150 127.614 150 100C150 72.386 127.614 50 100 50ZM100 140C77.909 140 60 122.091 60 100C60 77.909 77.909 60 100 60C122.091 60 140 77.909 140 100C140 122.091 122.091 140 100 140Z" fill="#AAAAAA"/>
</svg>